<svg width="20" height="19" viewBox="0 0 20 19" fill="none" xmlns="http://www.w3.org/2000/svg">
<path fill-rule="evenodd" clip-rule="evenodd" d="M0.892456 1.54728C0.892456 1.05048 1.29245 0.647278 1.7849 0.647278H3.12267C3.86133 0.647278 4.46044 1.25208 4.46044 1.99728V2.50128L18.5 2.50006C19.2796 2.54956 19.8511 3.25876 19.7418 4.03906L16.1093 10.2881C16.0631 10.6101 15.9039 10.9045 15.6608 11.1174C15.4178 11.3303 15.1071 11.4474 14.7857 11.4473H4.46044V13.2473H13.3875C13.7383 13.2466 14.0859 13.3158 14.4103 13.4512C14.7347 13.5865 15.0296 13.7852 15.2781 14.0359C15.5267 14.2866 15.724 14.5845 15.8588 14.9124C15.9936 15.2404 16.0633 15.592 16.0639 15.9473C16.0639 17.4386 14.8657 18.6473 13.3884 18.6473C12.9613 18.6479 12.5402 18.5449 12.1605 18.3467C11.7809 18.1486 11.4537 17.8611 11.2064 17.5085C10.9591 17.1558 10.799 16.7483 10.7394 16.3201C10.6798 15.8918 10.7225 15.4554 10.864 15.0473H6.09243C6.23386 15.4554 6.27657 15.8918 6.21698 16.3201C6.1574 16.7483 5.99725 17.1558 5.74997 17.5085C5.5027 17.8611 5.17551 18.1486 4.79585 18.3467C4.41618 18.5449 3.99513 18.6479 3.568 18.6473C3.21722 18.6479 2.86977 18.5785 2.54547 18.4431C2.22118 18.3078 1.92639 18.109 1.67794 17.8583C1.4295 17.6076 1.23226 17.3098 1.09748 16.9819C0.962707 16.654 0.893039 16.3024 0.892456 15.9473C0.892456 14.7719 1.63734 13.7711 2.67645 13.4003V3.35628V2.44728H1.7849C1.66793 2.44751 1.55207 2.42442 1.44392 2.37932C1.33577 2.33422 1.23745 2.26799 1.15458 2.18442C1.07171 2.10085 1.00591 2.00157 0.960934 1.89224C0.915958 1.78292 0.892689 1.6657 0.892456 1.54728ZM4.46044 4.30488V9.64728H14.3982L17.9071 4.26586L4.46044 4.30488ZM12.4959 15.9473C12.4959 15.4505 12.8951 15.0473 13.3875 15.0473C13.8799 15.0473 14.2799 15.4505 14.2799 15.9473C14.2799 16.4441 13.8799 16.8473 13.3875 16.8473C13.1514 16.8475 12.9249 16.7529 12.7578 16.5841C12.5906 16.4153 12.4964 16.1863 12.4959 15.9473ZM2.67645 15.9473C2.67645 15.4505 3.07644 15.0473 3.56889 15.0473C4.06133 15.0473 4.46044 15.4505 4.46044 15.9473C4.46044 16.4441 4.06133 16.8473 3.56889 16.8473C3.45192 16.8475 3.33606 16.8244 3.22791 16.7793C3.11976 16.7342 3.02144 16.668 2.93857 16.5844C2.8557 16.5008 2.7899 16.4016 2.74492 16.2922C2.69995 16.1829 2.67668 16.0657 2.67645 15.9473Z" fill="white"/>
</svg>
